<?xml version="1.0" encoding="UTF-8"?>
<!DOCTYPE svg PUBLIC "-//W3C//DTD SVG 1.1//EN" "http://www.w3.org/Graphics/SVG/1.1/DTD/svg11.dtd">
<svg xmlns="http://www.w3.org/2000/svg" xmlns:xlink="http://www.w3.org/1999/xlink" version="1.1" width="1169px" height="827px" viewBox="-0.5 -0.5 1169 827"><defs/><g><path d="M 16 150 L 106 150 Q 116 150 126 150 L 146 150" fill="none" stroke="#99ccff" stroke-width="16" stroke-miterlimit="10" pointer-events="stroke"/><path d="M 146 150 Q 166 150 171 165 Q 176 180 186 185 Q 196 190 231 190 Q 266 190 276 200 Q 286 210 291 220 Q 296 230 296 250 Q 296 270 296 300 Q 296 330 296 355 Q 296 380 301 385 Q 306 390 341 390 Q 376 390 406 390 Q 436 390 451 390 Q 466 390 476 400 Q 486 410 501 420 Q 516 430 531 435 Q 546 440 566 440 Q 586 440 616 440 Q 646 440 656 435 Q 666 430 676 415 Q 686 400 696 390 Q 706 380 716 375 Q 726 370 736 370 Q 746 370 761 375 Q 776 380 801 415 Q 826 450 841 450 Q 856 450 861 450 Q 866 450 876 430 Q 886 410 891 405 Q 896 400 936 400 Q 976 400 1001 400 Q 1026 400 1041 400 Q 1056 400 1076 400 Q 1096 400 1156 400" fill="none" stroke="#99ccff" stroke-width="16" stroke-miterlimit="10" pointer-events="stroke"/></g></svg>