<svg xmlns="http://www.w3.org/2000/svg" xmlns:xlink="http://www.w3.org/1999/xlink" viewBox="0 0 600 600"><defs><style>.cls-1{fill:url(#무제_그라디언트_21);}.cls-2{fill:url(#무제_그라디언트_24);}.cls-3{fill:url(#무제_그라디언트_50);}.cls-4{font-size:18px;font-family:TTGulimM, "210 Gulim";}.cls-5{font-size:94px;font-family:YdestreetL-KSCpc-EUC-H, Yde street;}.cls-6{letter-spacing:-0.08em;}</style><linearGradient id="무제_그라디언트_21" x1="156.92" y1="216.27" x2="400.18" y2="356.72" gradientUnits="userSpaceOnUse"><stop offset="0" stop-color="#fe4c00"/><stop offset="0.11" stop-color="#fd5400"/><stop offset="0.29" stop-color="#fb6901"/><stop offset="0.5" stop-color="#f88b02"/><stop offset="0.73" stop-color="#f4bb04"/><stop offset="0.81" stop-color="#f2cb05"/><stop offset="0.83" stop-color="#f3ce15"/><stop offset="0.86" stop-color="#f5d73f"/><stop offset="0.91" stop-color="#f9e583"/><stop offset="0.98" stop-color="#fdf8df"/><stop offset="1" stop-color="#fff"/></linearGradient><linearGradient id="무제_그라디언트_24" x1="572.76" y1="586.53" x2="667.15" y2="586.53" gradientTransform="translate(914.13 4.53) rotate(104.74)" gradientUnits="userSpaceOnUse"><stop offset="0" stop-color="#303ebc"/><stop offset="0.1" stop-color="#3845be"/><stop offset="0.25" stop-color="#4d59c5"/><stop offset="0.44" stop-color="#6f79d0"/><stop offset="0.65" stop-color="#9fa6e0"/><stop offset="0.88" stop-color="#dcdef4"/><stop offset="1" stop-color="#fff"/></linearGradient><linearGradient id="무제_그라디언트_50" x1="347.86" y1="249.8" x2="418.97" y2="249.8" gradientUnits="userSpaceOnUse"><stop offset="0" stop-color="#f6a602" stop-opacity="0.9"/><stop offset="0.11" stop-color="#eba00d" stop-opacity="0.9"/><stop offset="0.31" stop-color="#cc9029" stop-opacity="0.9"/><stop offset="0.55" stop-color="#9a7658" stop-opacity="0.9"/><stop offset="0.85" stop-color="#565298" stop-opacity="0.9"/><stop offset="1" stop-color="#303ebc" stop-opacity="0.9"/></linearGradient></defs><g id="Logo_01:_600_x_600_px" data-name="Logo 01: 600 x 600 px"><g id="Graphic_Elements-6" data-name="Graphic Elements"><path class="cls-1" d="M358.75,208.84l59,59a140.43,140.43,0,1,0,1.18,23l-71-71Z"/><path class="cls-2" d="M145.36,487.43l109.78-64.05a139.55,139.55,0,0,1-18.43-3.56c-1.37-.36-2.72-.74-4.07-1.14L124.29,481.89h0A15.41,15.41,0,0,0,145.36,487.43Z"/><path class="cls-3" d="M417.72,267.8l-59-59-10.89,10.88,71,71c0-1.41.07-2.82.07-4.23A141.19,141.19,0,0,0,417.72,267.8Z"/></g><g id="Text-6" data-name="Text"><text class="cls-4" transform="translate(182.01 380.31) rotate(-29.47)">T</text><text class="cls-4" transform="translate(194.09 373.66) rotate(-23.06)">H</text><text class="cls-4" transform="translate(209.08 367.58) rotate(-16.51)">E</text><text class="cls-4" transform="translate(223.06 363.75) rotate(-11.42)"> </text><text class="cls-4" transform="translate(231.92 361.88) rotate(-5.17)">W</text><text class="cls-4" transform="translate(250.98 360.49) rotate(1.87)">A</text><text class="cls-4" transform="translate(264.52 361.07) rotate(7.41)">Y</text><text class="cls-4" transform="translate(278.88 363.24) rotate(12.46)"> </text><text class="cls-4" transform="matrix(0.95, 0.3, -0.3, 0.95, 287.81, 365.28)">F</text><text class="cls-4" transform="translate(300.9 369.53) rotate(24.01)">O</text><text class="cls-4" transform="translate(316.22 376.69) rotate(30.75)">R</text><text class="cls-4" transform="matrix(0.81, 0.59, -0.59, 0.81, 328.69, 384.47)"> </text><text class="cls-4" transform="matrix(0.76, 0.65, -0.65, 0.76, 336.07, 389.87)">E</text><text class="cls-4" transform="translate(346.81 399.44) rotate(47.09)">V</text><text class="cls-4" transform="matrix(0.6, 0.8, -0.8, 0.6, 356.79, 410.51)">E</text><text class="cls-4" transform="translate(365.22 422.16) rotate(59.45)">R</text><text class="cls-4" transform="matrix(0.41, 0.91, -0.91, 0.41, 372.44, 434.83)">Y</text><text class="cls-4" transform="translate(378.15 447.8) rotate(72.27)">O</text><text class="cls-4" transform="matrix(0.18, 0.98, -0.98, 0.18, 383.04, 463.93)">N</text><text class="cls-4" transform="matrix(0.07, 1, -1, 0.07, 385.76, 479.98)">E</text><text class="cls-5" transform="translate(120.29 411.52) rotate(-45)">ABLE</text><text class="cls-5" transform="translate(278.65 277.35) rotate(45)"><tspan class="cls-6">PA</tspan><tspan x="147.86" y="0">TH</tspan></text></g></g></svg>